<svg width="200" height="200" viewBox="0 0 200 200" fill="none" xmlns="http://www.w3.org/2000/svg">
  <rect width="200" height="200" rx="10" fill="#F5F5F5"/>
  <path d="M100 65C87.3 65 77 75.3 77 88C77 97.4 82.8 105.4 91 108.7V119H109V108.7C117.2 105.4 123 97.4 123 88C123 75.3 112.7 65 100 65ZM105 113H95V107H105V113ZM111.3 102.2L107.6 104C110.1 107.2 111 108.6 111 112H89C89 108.6 89.9 107.2 92.4 104L88.7 102.2C85.6 106.2 84 109.1 84 114.5V122H116V114.5C116 109.1 114.4 106.2 111.3 102.2ZM100 71C109.4 71 117 78.6 117 88C117 97.4 109.4 105 100 105C90.6 105 83 97.4 83 88C83 78.6 90.6 71 100 71ZM100 77C94 77 89 82 89 88C89 94 94 99 100 99C106 99 111 94 111 88C111 82 106 77 100 77ZM100 93C97.2 93 95 90.8 95 88C95 85.2 97.2 83 100 83C102.8 83 105 85.2 105 88C105 90.8 102.8 93 100 93Z" fill="#B3B3B3"/>
  <path d="M59 142C59 139.791 60.7909 138 63 138H137C139.209 138 141 139.791 141 142C141 144.209 139.209 146 137 146H63C60.7909 146 59 144.209 59 142Z" fill="#E0E0E0"/>
  <path d="M73 155C73 152.791 74.7909 151 77 151H123C125.209 151 127 152.791 127 155C127 157.209 125.209 159 123 159H77C74.7909 159 73 157.209 73 155Z" fill="#E0E0E0"/>
</svg> 